<?xml version="1.0" encoding="utf-8"?>
<!-- Generator: Adobe Illustrator 13.0.0, SVG Export Plug-In . SVG Version: 6.00 Build 14948)  -->
<!DOCTYPE svg PUBLIC "-//W3C//DTD SVG 1.1//EN" "http://www.w3.org/Graphics/SVG/1.1/DTD/svg11.dtd">
<svg version="1.1" id="Layer_1" xmlns="http://www.w3.org/2000/svg" xmlns:xlink="http://www.w3.org/1999/xlink" x="0px" y="0px"
	 width="20px" height="20px" viewBox="0 0 20 20" enable-background="new 0 0 20 20" xml:space="preserve">
<g>
	<polygon fill="#FFFFFF" points="13.563,6.488 11.163,6.458 5.95,11.643 8.438,14.131 13.637,8.933 	"/>
	<g>
		<path fill="#FFFFFF" d="M0.014,10.003c0.001-5.522,4.477-9.999,10-9.999l0,0c5.523,0,10,4.477,10,9.999l0,0
			c0,5.524-4.477,9.998-10,10.001l0,0C4.491,20.001,0.015,15.527,0.014,10.003L0.014,10.003z M2.775,10.003
			c0.007,4,3.242,7.231,7.24,7.238l0,0c3.999-0.007,7.23-3.238,7.24-7.238l0,0c-0.01-3.997-3.241-7.232-7.24-7.24l0,0
			C6.017,2.771,2.782,6.007,2.775,10.003L2.775,10.003z"/>
	</g>
</g>
</svg>
